<?xml version="1.0" encoding="UTF-8" standalone="no"?> <svg width="64" height="64" viewBox="0 0 64 64" fill="none" xmlns="http://www.w3.org/2000/svg">
<path d="M60.2 46.33C60.5021 46.6038 60.7455 46.9362 60.9155 47.3068C61.0854 47.6775 61.1783 48.0788 61.1886 48.4864C61.1989 48.8941 61.1263 49.2996 60.9753 49.6783C60.8243 50.0571 60.5979 50.4013 60.31 50.69L50.41 60.59C50.225 60.7754 50.0052 60.9225 49.7632 61.0229C49.5213 61.1232 49.2619 61.1749 49 61.1749C48.7381 61.1749 48.4787 61.1232 48.2368 61.0229C47.9948 60.9225 47.775 60.7754 47.59 60.59L37.69 50.69C37.4021 50.4013 37.1757 50.0571 37.0247 49.6783C36.8737 49.2996 36.8011 48.8941 36.8114 48.4864C36.8217 48.0788 36.9146 47.6775 37.0845 47.3068C37.2545 46.9362 37.4979 46.6038 37.8 46.33C38.4075 45.8268 39.1823 45.571 39.97 45.6136C40.7577 45.6562 41.5004 45.9942 42.05 46.56L46 50.51V22C45.9979 18.5528 44.6276 15.2475 42.19 12.81C39.7525 10.3724 36.4472 9.00212 33 9C32.2044 9 31.4413 8.68393 30.8787 8.12132C30.3161 7.55871 30 6.79565 30 6C30 5.20435 30.3161 4.44129 30.8787 3.87868C31.4413 3.31607 32.2044 3 33 3C38.0391 3 42.8718 5.00178 46.435 8.56497C49.9982 12.1282 52 16.9609 52 22V50.51L55.95 46.56C56.4996 45.9942 57.2423 45.6562 58.03 45.6136C58.8177 45.571 59.5925 45.8268 60.2 46.33V46.33Z" fill="#ffa781"/>
<path d="M33.12 55.88C33.539 56.2995 33.8243 56.8339 33.9399 57.4154C34.0554 57.997 33.996 58.5998 33.7691 59.1477C33.5423 59.6955 33.1582 60.1639 32.6653 60.4936C32.1725 60.8232 31.593 60.9995 31 61C25.9609 61 21.1282 58.9982 17.565 55.435C14.0018 51.8718 12 47.0391 12 42V13.49L7.93 17.56C7.64218 17.8483 7.29853 18.0749 6.92009 18.2258C6.54165 18.3766 6.13639 18.4487 5.72914 18.4374C5.32189 18.4262 4.92121 18.3319 4.55167 18.1604C4.18212 17.9889 3.85148 17.7438 3.58 17.44C3.0723 16.8345 2.81362 16.0587 2.85632 15.2696C2.89902 14.4806 3.23992 13.7372 3.81 13.19L13.59 3.40999C13.775 3.22458 13.9948 3.07749 14.2368 2.97713C14.4787 2.87676 14.7381 2.8251 15 2.8251C15.2619 2.8251 15.5213 2.87676 15.7632 2.97713C16.0052 3.07749 16.225 3.22458 16.41 3.40999L26.31 13.31C26.5979 13.5987 26.8243 13.9429 26.9753 14.3217C27.1263 14.7004 27.1989 15.1059 27.1886 15.5135C27.1783 15.9212 27.0854 16.3225 26.9155 16.6932C26.7455 17.0638 26.5021 17.3961 26.2 17.67C25.5925 18.1732 24.8177 18.429 24.03 18.3864C23.2423 18.3437 22.4996 18.0058 21.95 17.44L18 13.49V42C18.0021 45.4472 19.3724 48.7525 21.81 51.19C24.2475 53.6276 27.5528 54.9979 31 55C31.3939 55 31.7839 55.0777 32.1477 55.2287C32.5115 55.3797 32.8419 55.601 33.12 55.88Z" fill="#fff"/>
</svg>
